<?xml version="1.0"?>
<svg xmlns="http://www.w3.org/2000/svg" xmlns:xlink="http://www.w3.org/1999/xlink" xmlns:svgjs="http://svgjs.com/svgjs" version="1.1" width="512" height="512" x="0" y="0" viewBox="0 0 512 512" style="enable-background:new 0 0 512 512" xml:space="preserve" class=""><g><path xmlns="http://www.w3.org/2000/svg" d="m496 96c0 35.347656-28.652344 64-64 64s-64-28.652344-64-64 28.652344-64 64-64 64 28.652344 64 64zm0 0" fill="#4770d9" data-original="#ffee58" style=""/><path xmlns="http://www.w3.org/2000/svg" d="m256 512c-141.152344 0-256-114.847656-256-256s114.847656-256 256-256c30.542969 0 60.878906 5.601562 90.160156 16.640625l-11.28125 29.933594c-25.664062-9.664063-52.207031-14.574219-78.878906-14.574219-123.519531 0-224 100.480469-224 224s100.480469 224 224 224 224-100.480469 224-224c0-19.230469-2.703125-38.960938-8.03125-58.609375l30.878906-8.367187c6.082032 22.382812 9.152344 44.914062 9.152344 66.976562 0 141.152344-114.847656 256-256 256zm0 0" fill="#4770d9" data-original="#b3e5fc" style="" class=""/><path xmlns="http://www.w3.org/2000/svg" d="m392 256c0 75.109375-60.890625 136-136 136s-136-60.890625-136-136 60.890625-136 136-136 136 60.890625 136 136zm0 0" fill="#4770d9" data-original="#40c4ff" style="" class=""/><g xmlns="http://www.w3.org/2000/svg" fill="#fff"><path d="m192 192h32v32h-32zm0 0" fill="#4770d9" data-original="#ffffff" style="" class=""/><path d="m288 224h32v32h-32zm0 0" fill="#4770d9" data-original="#ffffff" style="" class=""/><path d="m224 256h32v32h-32zm0 0" fill="#4770d9" data-original="#ffffff" style="" class=""/><path d="m288 288h32v32h-32zm0 0" fill="#4770d9" data-original="#ffffff" style="" class=""/></g><path xmlns="http://www.w3.org/2000/svg" d="m256 360c-69.566406 0-127.023438-52.542969-134.976562-120-.625 5.265625-1.023438 10.574219-1.023438 16 0 74.992188 61.007812 136 136 136s136-61.007812 136-136c0-5.425781-.398438-10.734375-1.023438-16-7.953124 67.457031-65.410156 120-134.976562 120zm0 0" fill="#4770d9" data-original="#00a4ed" style="" class=""/><path xmlns="http://www.w3.org/2000/svg" d="m432 128c-29.742188 0-54.574219-20.464844-61.726562-48-1.34375 5.152344-2.273438 10.449219-2.273438 16 0 35.296875 28.703125 64 64 64s64-28.703125 64-64c0-5.550781-.929688-10.847656-2.273438-16-7.152343 27.535156-31.984374 48-61.726562 48zm0 0" fill="#4770d9" data-original="#fdd835" style="" class=""/><path xmlns="http://www.w3.org/2000/svg" d="m416 64h32v32h-32zm0 0" fill="#4770d9" data-original="#ffffff" style="" class=""/></g></svg>
