<?xml version="1.0"?>
<svg xmlns="http://www.w3.org/2000/svg" xmlns:xlink="http://www.w3.org/1999/xlink" xmlns:svgjs="http://svgjs.com/svgjs" version="1.1" width="512" height="512" x="0" y="0" viewBox="0 0 584.92 584.92" style="enable-background:new 0 0 512 512" xml:space="preserve" class=""><g>
<g xmlns="http://www.w3.org/2000/svg">
	<g>
		<path d="M486.853,191.666c-2.57-2.57-4.651-1.708-4.651,1.928v28.195c0,3.632-2.946,6.579-6.579,6.579H356.555V109.297    c0-3.632,2.943-6.579,6.579-6.579h28.194c3.633,0,4.495-2.084,1.929-4.651L297.111,1.928c-2.57-2.57-6.736-2.57-9.303,0    l-96.142,96.139c-2.57,2.57-1.708,4.651,1.928,4.651h28.195c3.632,0,6.579,2.947,6.579,6.579v119.068H109.297    c-3.632,0-6.579-2.947-6.579-6.579v-28.195c0-3.632-2.084-4.495-4.651-1.928L1.928,287.808c-2.57,2.57-2.57,6.736,0,9.303    l96.142,96.142c2.57,2.57,4.651,1.708,4.651-1.928v-28.194c0-3.633,2.947-6.579,6.579-6.579h119.067v119.067    c0,3.633-2.944,6.579-6.579,6.579h-28.195c-3.632,0-4.495,2.084-1.928,4.651l96.142,96.142c2.57,2.571,6.736,2.571,9.303,0    l96.142-96.142c2.57-2.57,1.708-4.651-1.928-4.651h-28.194c-3.633,0-6.579-2.946-6.579-6.579V356.552h119.067    c3.633,0,6.579,2.946,6.579,6.579v28.194c0,3.633,2.084,4.495,4.651,1.928l96.142-96.142c2.571-2.57,2.571-6.736,0-9.303    L486.853,191.666z" fill="#4770d9" data-original="#000000" style="" class=""/>
	</g>
</g>
<g xmlns="http://www.w3.org/2000/svg">
</g>
<g xmlns="http://www.w3.org/2000/svg">
</g>
<g xmlns="http://www.w3.org/2000/svg">
</g>
<g xmlns="http://www.w3.org/2000/svg">
</g>
<g xmlns="http://www.w3.org/2000/svg">
</g>
<g xmlns="http://www.w3.org/2000/svg">
</g>
<g xmlns="http://www.w3.org/2000/svg">
</g>
<g xmlns="http://www.w3.org/2000/svg">
</g>
<g xmlns="http://www.w3.org/2000/svg">
</g>
<g xmlns="http://www.w3.org/2000/svg">
</g>
<g xmlns="http://www.w3.org/2000/svg">
</g>
<g xmlns="http://www.w3.org/2000/svg">
</g>
<g xmlns="http://www.w3.org/2000/svg">
</g>
<g xmlns="http://www.w3.org/2000/svg">
</g>
<g xmlns="http://www.w3.org/2000/svg">
</g>
</g></svg>
